<svg xmlns="http://www.w3.org/2000/svg" viewBox="0 0 400 240" role="img" aria-labelledby="title">
  <title id="title">Table View Butler's Pizza branch illustration</title>
  <defs>
    <linearGradient id="sky" x1="0" y1="0" x2="0" y2="1">
      <stop offset="0" stop-color="#dff5ff"/>
      <stop offset="1" stop-color="#ffffff"/>
    </linearGradient>
    <filter id="shadow" x="-20%" y="-20%" width="140%" height="140%">
      <feDropShadow dx="0" dy="5" stdDeviation="4" flood-color="#000" flood-opacity=".16"/>
    </filter>
  </defs>
  <rect width="400" height="240" rx="18" fill="url(#sky)"/>
  <g opacity=".38" fill="#9ac5d6">
    <rect x="18" y="104" width="24" height="72"/><rect x="48" y="81" width="34" height="95"/>
    <rect x="326" y="92" width="28" height="84"/><rect x="360" y="69" width="24" height="107"/>
  </g>
  <g fill="#fff" opacity=".95">
    <ellipse cx="74" cy="52" rx="31" ry="12"/><ellipse cx="96" cy="46" rx="22" ry="15"/>
    <ellipse cx="316" cy="45" rx="35" ry="13"/><ellipse cx="340" cy="40" rx="21" ry="16"/>
  </g>
  <g filter="url(#shadow)">
    
        <rect x="92" y="81" width="216" height="116" rx="5" fill="#313941" stroke="#171717" stroke-width="7"/>
        <rect x="112" y="58" width="105" height="45" fill="#e59b28" stroke="#171717" stroke-width="6"/>
        <rect x="103" y="99" width="194" height="35" fill="#ffd30a" stroke="#171717" stroke-width="5"/>
        <text x="200" y="123" text-anchor="middle" font-family="Arial Black,Arial" font-size="18" fill="#111">BUTLER'S PIZZA</text>
        <rect x="110" y="145" width="54" height="52" fill="#8fd1e6" stroke="#171717" stroke-width="5"/>
        <rect x="174" y="145" width="53" height="52" fill="#f8f4df" stroke="#171717" stroke-width="5"/>
        <rect x="237" y="145" width="54" height="52" fill="#8fd1e6" stroke="#171717" stroke-width="5"/>
  </g>
  <g>
    <circle cx="52" cy="175" r="24" fill="#69b94d" stroke="#171717" stroke-width="5"/>
    <rect x="48" y="176" width="8" height="26" fill="#694326"/>
    <circle cx="348" cy="174" r="25" fill="#69b94d" stroke="#171717" stroke-width="5"/>
    <rect x="344" y="176" width="8" height="26" fill="#694326"/>
  </g>
  <path d="M33 202H367" stroke="#171717" stroke-width="6" stroke-linecap="round"/>
</svg>